# xmcd
# Copyright (C) 1995-1998 Ti Kan
#
# Track frame offsets:
#       150
#       9918
#       18498
#       27541
#       37381
#       50410
#       65077
#       78655
#       88936
#       98572
#       107943
#       116877
#       132104
#       143833
#       156461
#       162883
#       175620
#       183819
#       202299
#       210579
#
# Disc length: 2966 seconds
#
# Revision: 0
# Processed by: cddbd v1.5.2PL0 Copyright (c) Steve Scherf et al.
# Submitted via: CD-Import v1.0
#
DISCID=210b9414
DTITLE=Rutles - The Rutles
DYEAR=78
DGENRE=
TTITLE0=Antoher Day
TTITLE1=Baby Let Me Be
TTITLE2=Between Us
TTITLE3=Blue Suede Schubert
TTITLE4=Doubleback Alley
TTITLE5=Get Up And Go
TTITLE6=Good Times Roll
TTITLE7=Goose-Step Mam
TTITLE8=Hold My Hand
TTITLE9=I Must Be In Love
TTITLE10=It's Looking Good
TTITLE11=Let's Be Natural
TTITLE12=Living In Hope
TTITLE13=Love Life
TTITLE14=Nevertheless
TTITLE15=Number One
TTITLE16=Ouch!
TTITLE17=Piggy In The Middle
TTITLE18=With A Girl Like You
TTITLE19=Cheese And Onion
EXTD=
EXTT0=
EXTT1=
EXTT2=
EXTT3=
EXTT4=
EXTT5=
EXTT6=
EXTT7=
EXTT8=
EXTT9=
EXTT10=
EXTT11=
EXTT12=
EXTT13=
EXTT14=
EXTT15=
EXTT16=
EXTT17=
EXTT18=
EXTT19=
PLAYORDER=
